<svg id="bbb97be0-4a83-42f8-8219-ef60a93afb1f" data-name="Layer 1" xmlns="http://www.w3.org/2000/svg" viewBox="0 0 250 250">
  <defs>
    <style>
      .b7cdc934-3543-47ba-9361-18ace38db2a9 {
        fill: #fff;
      }

      .b7cdc934-3543-47ba-9361-18ace38db2a9, .e8d4939c-d0c5-48b5-9cff-53a4c3095940, .f228e3d5-e1df-48b8-90c1-44e9354c1715 {
        stroke: #000;
        stroke-linecap: round;
        stroke-linejoin: round;
      }

      .b7cdc934-3543-47ba-9361-18ace38db2a9, .e8d4939c-d0c5-48b5-9cff-53a4c3095940 {
        stroke-width: 5px;
      }

      .e8d4939c-d0c5-48b5-9cff-53a4c3095940, .f228e3d5-e1df-48b8-90c1-44e9354c1715 {
        fill: none;
      }

      .f228e3d5-e1df-48b8-90c1-44e9354c1715 {
        stroke-width: 3px;
      }

      .e465ea4f-c7ac-4930-b6cb-60f952c69ef5 {
        fill: #f40b37;
        opacity: 0.73;
      }
    </style>
  </defs>
  <g>
    <path class="b7cdc934-3543-47ba-9361-18ace38db2a9" d="M175.27,76.91H74.73A10.7,10.7,0,0,0,64,87.6V98.88H186V87.6A10.7,10.7,0,0,0,175.27,76.91Z"/>
    <path class="b7cdc934-3543-47ba-9361-18ace38db2a9" d="M158.75,192.32H91.25a9.17,9.17,0,0,1-9.15-8.5L75.9,98.88h98.2l-6.2,84.94A9.17,9.17,0,0,1,158.75,192.32Z"/>
    <path class="e8d4939c-d0c5-48b5-9cff-53a4c3095940" d="M134.72,57.68H114.61a8.46,8.46,0,0,0-8.46,8.46V76.91h37V66.14A8.47,8.47,0,0,0,134.72,57.68Z"/>
    <line class="f228e3d5-e1df-48b8-90c1-44e9354c1715" x1="124.67" y1="119.98" x2="124.67" y2="167.35"/>
    <line class="f228e3d5-e1df-48b8-90c1-44e9354c1715" x1="100.41" y1="119.98" x2="104.71" y2="167.35"/>
    <line class="f228e3d5-e1df-48b8-90c1-44e9354c1715" x1="149.69" y1="119.98" x2="145.38" y2="167.35"/>
  </g>
  <polygon class="e465ea4f-c7ac-4930-b6cb-60f952c69ef5" points="201.82 157.88 184.38 175.31 166.94 157.88 157.34 167.48 174.78 184.92 157.34 202.36 166.94 211.96 184.38 194.52 201.82 211.96 211.43 202.36 193.99 184.92 211.43 167.48 201.82 157.88"/>
</svg>
