<svg id="acf4f0e8-a40d-47ac-847c-208b34e0aacb" data-name="Layer 1" xmlns="http://www.w3.org/2000/svg" viewBox="0 0 250 250">
  <defs>
    <style>
      .b70b1c2e-94e8-42a2-a249-8d49f8a4bee0 {
        fill: #fff;
      }

      .aec3da78-b9b2-4707-8252-41d3548ec3ec, .b43116dc-b854-438b-a0d9-83f0406f0494 {
        fill: none;
        stroke: #000;
        stroke-linecap: round;
        stroke-linejoin: round;
      }

      .aec3da78-b9b2-4707-8252-41d3548ec3ec {
        stroke-width: 1.5px;
      }

      .b43116dc-b854-438b-a0d9-83f0406f0494 {
        stroke-width: 1.72px;
      }
    </style>
  </defs>
  <g>
    <path class="b70b1c2e-94e8-42a2-a249-8d49f8a4bee0" d="M76.79,160.31a25.61,25.61,0,0,1-5.78-6.2c-5.88-8.25-7.07-23.25-5.34-25.35,3,.25,5.94,5.58,7,8.17a3.17,3.17,0,0,0,.17.37,5.36,5.36,0,0,1,.84,2.56,73,73,0,0,0,1,10.46C75.25,153.7,76,157,76.79,160.31Z"/>
    <path class="b70b1c2e-94e8-42a2-a249-8d49f8a4bee0" d="M179,154.11a29.72,29.72,0,0,1-5.56,6.25c.79-3.3,1.54-6.64,2.13-10a74.87,74.87,0,0,0,1.08-12.52v-.58A2.48,2.48,0,0,0,178,135.8c.65-1.78,3.19-6.8,6.36-7C186.07,130.86,184.88,145.86,179,154.11Z"/>
    <path class="b70b1c2e-94e8-42a2-a249-8d49f8a4bee0" d="M172.75,137.74c0,1.91-.17,3.8-.38,5.69a59.05,59.05,0,0,1-2.14,6.16,44.77,44.77,0,0,1-3.19,6.34,31.88,31.88,0,0,1-4.3,5.66,32.42,32.42,0,0,0,4.52-5.52,45.54,45.54,0,0,0,3.44-6.28c.43-.95.82-1.91,1.2-2.88-.76,4.83-2,9.63-3.21,14.45l-1.59,5.9c-.54,2-1.07,4-1.62,5.85A53.87,53.87,0,0,1,161,183.94a44.85,44.85,0,0,1-7,9.26c-2.75,2.82-5.78,5.64-8.74,8.3a44.09,44.09,0,0,1-9.42,6.71,24.72,24.72,0,0,1-21.46,0A43.9,43.9,0,0,1,105,201.5c-3-2.66-6-5.48-8.74-8.3a45.15,45.15,0,0,1-7-9.25,54.2,54.2,0,0,1-4.47-10.84c-.55-1.89-1.09-3.87-1.62-5.84l-1.59-5.91c-1.17-4.5-2.28-9-3.05-13.49.27.64.52,1.29.8,1.92a45.6,45.6,0,0,0,3.45,6.28,31.9,31.9,0,0,0,4.51,5.52,32.36,32.36,0,0,1-4.3-5.66,44.77,44.77,0,0,1-3.19-6.34c-.66-1.61-1.22-3.24-1.74-4.89a62.34,62.34,0,0,1-.54-7c0-.52,0-1.05,0-1.58a.49.49,0,0,0,0-.12c0-1.42.06-2.84.1-4.27.16-2,.26-4,.53-6,.43-4,1.13-8,1.83-12s1.56-8,2.44-12c.4-2,.94-3.91,1.44-5.85l1-2.83c.3-1,.75-1.84,1.12-2.76a37.44,37.44,0,0,1,6.29-10A33.07,33.07,0,0,1,101.52,73,38.57,38.57,0,0,1,113,69.32c2-.36,4-.76,6-1s4.07-.27,6.11-.34,4.09.1,6.1.34,4,.66,6,1A38.57,38.57,0,0,1,148.71,73a33.25,33.25,0,0,1,9.36,7.32,37.6,37.6,0,0,1,6.29,10c.37.93.83,1.81,1.12,2.76l1,2.83c.5,2,1,3.83,1.44,5.85q1.32,6,2.44,12c.7,4,1.4,8,1.83,12,.27,2,.37,4,.53,6S172.84,135.76,172.75,137.74Z"/>
    <path class="b70b1c2e-94e8-42a2-a249-8d49f8a4bee0" d="M177.71,126.93a17.57,17.57,0,0,0-1.55,1.84c-.12-1.15-.25-2.3-.43-3.44-.54-4.12-1.34-8.16-2.2-12.19s-1.84-8-2.85-12c-.46-2-1.11-4-1.7-6l-1.11-2.94c-.34-1-.85-1.91-1.28-2.87A39.64,39.64,0,0,0,159.49,79a33.77,33.77,0,0,0-10.17-7.25,39.49,39.49,0,0,0-11.95-3.19c-2-.24-4.06-.52-6.11-.66s-4.1,0-6.14,0-4.09-.16-6.14,0-4.08.42-6.11.66a39.65,39.65,0,0,0-12,3.2A33.68,33.68,0,0,0,90.75,79a39.76,39.76,0,0,0-7.1,10.33c-.43,1-.94,1.89-1.28,2.87l-1.11,3c-.59,2-1.24,4-1.7,6-1,4-2,8-2.85,12s-1.66,8.06-2.2,12.18c-.2,1.27-.34,2.56-.46,3.85-.39-.53-.8-1.05-1.25-1.56a2.52,2.52,0,0,0,.34-2C73,125.2,62.43,83.14,86.46,57,97,45.43,112.79,39.86,129.7,41.67c17.38,1.86,32.87,11,40.42,24,15,25.59,7.62,59.75,7.55,60.09A2.39,2.39,0,0,0,177.71,126.93Z"/>
    <g>
      <path d="M88.31,68.59A50.25,50.25,0,0,0,84,74.33a51.54,51.54,0,0,0-3.53,6.28,53.67,53.67,0,0,0-2.66,6.7,56.68,56.68,0,0,0-1.71,7,55.45,55.45,0,0,0-.57,14.26,105.35,105.35,0,0,1,2.17-13.94,69.39,69.39,0,0,1,4.55-13.18,65.09,65.09,0,0,1,7.17-12,53.41,53.41,0,0,1,10-9.92A41.43,41.43,0,0,0,88.31,68.59Z"/>
      <path d="M133.26,59c.87.2,1.75.38,2.64.56.44.1.88.18,1.32.29l1.29.39,2.61.78c1.73.56,3.39,1.3,5.13,1.89-.79-.45-1.59-.89-2.41-1.32s-1.61-.9-2.45-1.26l-2.57-1-1.29-.5c-.44-.14-.89-.25-1.34-.38l-2.68-.72c-.91-.2-1.83-.31-2.74-.47l-1.38-.2c-.46,0-.93-.06-1.39-.08-.93,0-1.86-.13-2.79-.11a34.21,34.21,0,0,0-10.94,2,32.87,32.87,0,0,0-5,2.3,25.57,25.57,0,0,0-4.45,3.26,36,36,0,0,1,9.86-4.45,40.11,40.11,0,0,1,10.6-1.58c.89,0,1.79,0,2.68.07.45,0,.9,0,1.34.06l1.34.17C131.47,58.74,132.37,58.81,133.26,59Z"/>
      <path d="M125.13,50.45a62.32,62.32,0,0,1,10.58,1.08,40.3,40.3,0,0,1,18.9,8.67,60.69,60.69,0,0,1,7.32,7.63,57.45,57.45,0,0,1,5.76,8.88c1.66,3.14,3.12,6.41,4.59,9.69s3,6.56,4.66,9.73c-2.71-6.66-4.78-13.53-7.9-20.1a53.08,53.08,0,0,0-5.66-9.34,56.45,56.45,0,0,0-7.47-8,36.49,36.49,0,0,0-9.36-5.82A45.08,45.08,0,0,0,136,49.94,55.31,55.31,0,0,0,114.42,51,65.15,65.15,0,0,1,125.13,50.45Z"/>
      <path d="M129.07,144a25.81,25.81,0,0,0,2.21,6.91,47.34,47.34,0,0,1-1.15-7.07c-.21-2.36-.39-4.77-.43-7.11a38.67,38.67,0,0,1,2.53-13.86,19.37,19.37,0,0,0-3.12,6.58,25,25,0,0,0-.88,7.3,36.42,36.42,0,0,0,.29,3.65C128.64,141.58,128.85,142.78,129.07,144Z"/>
      <path d="M115.48,160.79A9.74,9.74,0,0,1,114,157.2a4.39,4.39,0,0,0-.19,2.13,4.53,4.53,0,0,0,.83,2,3.77,3.77,0,0,0,1.78,1.35,4,4,0,0,0,2.13.22,12.85,12.85,0,0,1-1.78-.91A4.82,4.82,0,0,1,115.48,160.79Z"/>
      <path d="M135.69,160.79a6.76,6.76,0,0,1-3.11,2.16,3.9,3.9,0,0,0,2.13-.21,4,4,0,0,0,1.78-1.35,4.55,4.55,0,0,0,.82-2.06,4.39,4.39,0,0,0-.19-2.13A9.56,9.56,0,0,1,135.69,160.79Z"/>
      <path d="M131.49,158.57a3.12,3.12,0,0,0-2.16.37,4.24,4.24,0,0,0-1.46,1.29,3.67,3.67,0,0,0-.69,1.84,9.5,9.5,0,0,0,1.73-.66c.5-.24,1-.49,1.37-.71a7.88,7.88,0,0,1,1.15-.55,2.73,2.73,0,0,1,1.56-.07A1.91,1.91,0,0,0,131.49,158.57Z"/>
      <path d="M121.62,161.41a9.5,9.5,0,0,0,1.73.66,3.67,3.67,0,0,0-.69-1.84,4.34,4.34,0,0,0-1.46-1.29,3.13,3.13,0,0,0-2.16-.37,1.91,1.91,0,0,0-1.5,1.51,2.75,2.75,0,0,1,1.56.07,7.88,7.88,0,0,1,1.15.55C120.67,160.92,121.12,161.17,121.62,161.41Z"/>
      <path d="M163.61,129.72a.89.89,0,0,0-.4-1.2l-.05,0c-.9-.45-1.75-1.1-2.83-1.66a17.61,17.61,0,0,0-3.27-1.28,21.68,21.68,0,0,0-3.42-.62,22,22,0,0,0-3.45,0l-.8.08h0l-1,.12a16,16,0,0,0-3,.69.72.72,0,0,0-.24.14c-.52.21-1,.46-1.53.72a13.27,13.27,0,0,0-5,4.52,16.8,16.8,0,0,1,5.49-3.44l.12,0a5.82,5.82,0,0,0-.24,1.62,5.71,5.71,0,0,0,11.42,0,5.62,5.62,0,0,0-.49-2.3c.57.11,1.13.24,1.67.4a16.51,16.51,0,0,1,2.92,1.09c.48.23.87.47,1.39.77l.47.26c-.49.53-1,1-1.54,1.53a19.15,19.15,0,0,1-2.73,2,17.22,17.22,0,0,1-6.48,2.19,13.63,13.63,0,0,0,7-1.08,16.13,16.13,0,0,0,3.17-1.83,16.73,16.73,0,0,0,2.71-2.48A1.27,1.27,0,0,0,163.61,129.72Zm-14,3.87a4.21,4.21,0,0,1-4.21-4.2,4.14,4.14,0,0,1,.61-2.18l.53-.13.51-.09a30.7,30.7,0,0,1,3.19-.23c.91,0,1.83,0,2.7.08a4.17,4.17,0,0,1,.88,2.55A4.21,4.21,0,0,1,149.64,133.59Z"/>
      <path d="M151,121.61a11.47,11.47,0,0,0-4.89.9,12.19,12.19,0,0,0-4.08,2.71,19.74,19.74,0,0,1,4.35-2,13.8,13.8,0,0,1,4.58-.65,20,20,0,0,1,4.63.77,40.1,40.1,0,0,1,4.54,1.59,18.38,18.38,0,0,0-4.3-2.32A15.5,15.5,0,0,0,151,121.61Z"/>
      <path d="M129.29,190.67a6.45,6.45,0,0,0-3.66-1.2,6.62,6.62,0,0,0-3.65,1.22,7.06,7.06,0,0,0-2.38,2.74c1.1-.52,2.11-1,3.12-1.36a9,9,0,0,1,2.92-.6,8.73,8.73,0,0,1,2.92.59,32.13,32.13,0,0,1,3.1,1.37A6.86,6.86,0,0,0,129.29,190.67Z"/>
      <path d="M153,114.75c4.49-1.39,8-.24,11.35,1.41a7.12,7.12,0,0,0,3.66.75c-3.71-3-6.58-4.9-8.69-6.32a5.24,5.24,0,0,0-4-.83c-7.16,1.48-16.19,3.76-16.19,3.76a4.69,4.69,0,0,0-2.58,1.56c-.64.84-.46,2.46.53,2.85a7.59,7.59,0,0,0,3.11,0A90.58,90.58,0,0,0,153,114.75Z"/>
      <path d="M112.42,131.25a13.27,13.27,0,0,0-5-4.51,13.49,13.49,0,0,0-1.54-.73h0a.72.72,0,0,0-.24-.14,16.12,16.12,0,0,0-3-.68c-.62-.1-1.25-.17-1.87-.21a21.75,21.75,0,0,0-3.43,0,20.51,20.51,0,0,0-3.43.61,17.07,17.07,0,0,0-3.26,1.27,10.9,10.9,0,0,0-2.95,2.1l0,0a.84.84,0,0,0,0,1.15,14.37,14.37,0,0,0,2.7,2.44,15.42,15.42,0,0,0,3.12,1.74,14.62,14.62,0,0,0,1.68.6,17.18,17.18,0,0,0,1.73.37,13.53,13.53,0,0,0,3.48.06,19,19,0,0,1-3.31-.76,16.29,16.29,0,0,1-3-1.36,18.06,18.06,0,0,1-2.69-1.89,19.78,19.78,0,0,1-1.67-1.63,14.52,14.52,0,0,1,1.88-1.11,16.34,16.34,0,0,1,2.91-1.07q.8-.23,1.62-.39a5.79,5.79,0,0,0-.49,2.3,5.71,5.71,0,0,0,11.42,0,5.82,5.82,0,0,0-.23-1.62l.13,0A16.75,16.75,0,0,1,112.42,131.25Zm-11.08,2.34a4.21,4.21,0,0,1-4.21-4.2,4.17,4.17,0,0,1,.88-2.55c.89-.06,1.81-.08,2.74-.07a28,28,0,0,1,3.18.23,4.34,4.34,0,0,1,.52.09c.16,0,.33.07.49.12a4.14,4.14,0,0,1,.61,2.18A4.21,4.21,0,0,1,101.34,133.59Z"/>
      <path d="M100,122.6a13.82,13.82,0,0,1,4.59.65,19.87,19.87,0,0,1,4.34,2,12.25,12.25,0,0,0-4.07-2.71,11.5,11.5,0,0,0-4.89-.9,15.56,15.56,0,0,0-4.84,1A18.31,18.31,0,0,0,90.83,125a40.64,40.64,0,0,1,4.53-1.59A20,20,0,0,1,100,122.6Z"/>
      <path d="M114.47,115.08a4.66,4.66,0,0,0-2.57-1.56s-9-2.28-16.2-3.76a5.21,5.21,0,0,0-4,.83c-2.11,1.42-5,3.35-8.7,6.32a7.15,7.15,0,0,0,3.67-.75c3.34-1.65,6.86-2.8,11.34-1.41a91.25,91.25,0,0,0,12.8,3.15,7.64,7.64,0,0,0,3.12,0C114.93,117.54,115.11,115.92,114.47,115.08Z"/>
      <path d="M110.42,56.63a12.66,12.66,0,0,0-4.51,1.47A13.19,13.19,0,0,0,102.14,61c1.41-.74,2.75-1.5,4.12-2.21S109,57.37,110.42,56.63Z"/>
      <path d="M105.35,49a7.85,7.85,0,0,0-3.32,1,8.19,8.19,0,0,0-2.69,2.17c1.07-.47,2-1,3-1.51S104.35,49.57,105.35,49Z"/>
      <path d="M113.47,49a26.83,26.83,0,0,0-12.77,5.33c2.11-1,4.2-1.93,6.32-2.81S111.29,49.79,113.47,49Z"/>
      <path d="M90.24,61.5c1.3-.91,2.51-1.86,3.79-2.74s2.55-1.74,3.84-2.67a13.3,13.3,0,0,0-4.27,2.06A12.9,12.9,0,0,0,90.24,61.5Z"/>
      <path d="M96.41,53.7a24.71,24.71,0,0,0-5.86,3.79,25,25,0,0,0-4.68,5.18c1.73-1.56,3.4-3.13,5.17-4.61S94.58,55.14,96.41,53.7Z"/>
      <path d="M149.64,128.09A1.61,1.61,0,0,0,148,129.7h0a1.61,1.61,0,0,0,3.22,0h0A1.61,1.61,0,0,0,149.64,128.09Z"/>
      <path d="M101.34,128.09A1.61,1.61,0,1,0,103,129.7,1.61,1.61,0,0,0,101.34,128.09Z"/>
      <path d="M188.83,126.57a4.86,4.86,0,0,0-4.44-2.81,7.62,7.62,0,0,0-1.29.13c1.54-9.14,4.85-37.68-8.67-60.79-8.34-14.26-25.27-24.37-44.2-26.4-18.51-2-35.81,4.17-47.46,16.88C60.32,78,65.56,113.81,67.66,124.09a7.27,7.27,0,0,0-2-.33,4.85,4.85,0,0,0-4.44,2.81c-3.17,6-.1,22.21,5.76,30.44,5.06,7.11,9.11,9,11.38,9.41l.51,2c.5,2,1,3.95,1.57,6a58.38,58.38,0,0,0,4.69,11.84,47.6,47.6,0,0,0,7.65,10.31c3,3,5.89,5.8,9,8.62a48.94,48.94,0,0,0,10.47,7.48,27.65,27.65,0,0,0,6.29,2.28,31.77,31.77,0,0,0,6.63.74,31,31,0,0,0,6.63-.74,27.56,27.56,0,0,0,6.3-2.28,49.2,49.2,0,0,0,10.47-7.48c3.1-2.82,6-5.58,9-8.62a47.53,47.53,0,0,0,7.65-10.3,58.73,58.73,0,0,0,4.7-11.85c.57-2,1.06-4,1.57-6l.49-1.94c2-.19,5.75-1.87,11.16-9.46C188.93,148.78,192,132.57,188.83,126.57ZM71,154.11c-5.87-8.25-7.06-23.24-5.34-25.34,3,.25,6,5.57,7,8.17a2.42,2.42,0,0,0,.18.36,5.36,5.36,0,0,1,.84,2.56,73.1,73.1,0,0,0,1,10.46c.58,3.38,1.33,6.7,2.12,10A25.8,25.8,0,0,1,71,154.11Zm96.1,13.16c-.54,2-1.07,4-1.63,5.84A53.59,53.59,0,0,1,161,184a44.53,44.53,0,0,1-7,9.25c-2.75,2.82-5.78,5.64-8.74,8.3a43.9,43.9,0,0,1-9.43,6.71,24.72,24.72,0,0,1-21.46,0A44.09,44.09,0,0,1,105,201.5c-3-2.65-6-5.48-8.74-8.3a44.18,44.18,0,0,1-7-9.25,53,53,0,0,1-4.47-10.84c-.56-1.88-1.09-3.87-1.62-5.84l-1.59-5.91c-1.18-4.5-2.28-9-3.05-13.49.26.64.52,1.29.8,1.92a45.54,45.54,0,0,0,3.44,6.28,32,32,0,0,0,4.52,5.52,31.17,31.17,0,0,1-4.3-5.66,45.92,45.92,0,0,1-3.2-6.34c-.65-1.6-1.22-3.24-1.74-4.89a59.87,59.87,0,0,1-.53-6.95c0-.53,0-1.06,0-1.59v-.11c0-1.43.07-2.85.11-4.28.15-2,.26-4,.52-6,.43-4,1.14-8,1.84-12s1.55-8,2.43-12c.4-2,1-3.9,1.45-5.84l1-2.83c.29-1,.75-1.84,1.11-2.77a37.63,37.63,0,0,1,6.3-10A33.25,33.25,0,0,1,101.52,73,38.26,38.26,0,0,1,113,69.33c2-.37,4-.77,6-1s4.06-.26,6.1-.34c-2,0-4.08-.15-6.14,0s-4.08.42-6.11.65a39.51,39.51,0,0,0-12,3.2A33.9,33.9,0,0,0,90.74,79a39.88,39.88,0,0,0-7.1,10.34c-.42.95-.94,1.88-1.28,2.87l-1.1,2.94c-.59,2-1.24,4-1.7,6-1,4-2,8-2.85,12s-1.66,8.07-2.2,12.18c-.2,1.28-.34,2.56-.47,3.86a8,8,0,0,0-.8-1.06,15.45,15.45,0,0,0-.11-2.51C73,125.2,62.43,83.14,86.45,57,97,45.44,112.78,39.87,129.7,41.68c17.38,1.85,32.86,11,40.42,23.94,15,25.6,7.62,59.75,7.54,60.09a4.54,4.54,0,0,1-.32,1.61,11.44,11.44,0,0,0-1.19,1.45c-.11-1.15-.24-2.3-.42-3.44-.54-4.11-1.34-8.16-2.2-12.18s-1.84-8-2.86-12c-.46-2-1.1-4-1.7-6l-1.1-2.94c-.34-1-.85-1.92-1.28-2.88A40,40,0,0,0,159.49,79a33.72,33.72,0,0,0-10.17-7.25,39.28,39.28,0,0,0-12-3.2c-2-.24-4.05-.52-6.11-.65s-4.09,0-6.14,0c2,.08,4.09.1,6.11.34s4,.67,6,1A38.55,38.55,0,0,1,148.71,73a33.25,33.25,0,0,1,9.36,7.32,37.6,37.6,0,0,1,6.29,10c.36.93.82,1.81,1.12,2.77l1,2.83c.5,1.94,1,3.83,1.45,5.84q1.32,6,2.43,12c.7,4,1.41,8,1.84,12,.26,2,.37,4,.52,6s.17,4,.07,6-.16,3.79-.37,5.68a63.15,63.15,0,0,1-2.14,6.16,44.77,44.77,0,0,1-3.19,6.34,31.64,31.64,0,0,1-4.3,5.66,31.53,31.53,0,0,0,4.51-5.52,45.6,45.6,0,0,0,3.45-6.28q.63-1.42,1.2-2.88c-.77,4.83-2,9.63-3.22,14.45ZM179,154.11a29.8,29.8,0,0,1-5.57,6.26c.8-3.31,1.55-6.65,2.14-10.05a74.87,74.87,0,0,0,1.08-12.52c0-.19,1.09-1.34,1.33-2,.65-1.78,3.19-6.8,6.36-7C186.06,130.86,184.88,145.86,179,154.11Z"/>
    </g>
    <g>
      <path id="f6277483-f2d2-4a76-b4c7-f3f173c8c5eb" data-name="Group 1" class="aec3da78-b9b2-4707-8252-41d3548ec3ec" d="M109.51,181.73c2.85,1.69,6.52,5.54,8.86,6.43a12.54,12.54,0,0,0,1.57.46,26.1,26.1,0,0,0,12.05,0,12.05,12.05,0,0,0,1.57-.46c2.34-.89,6-4.74,8.89-6.43"/>
      <path id="e50a3f4b-32e7-4c75-b8a4-6bbbe641df49" data-name="Group 1" class="b43116dc-b854-438b-a0d9-83f0406f0494" d="M109.51,181.73A67.48,67.48,0,0,0,118,177c2.3-1.59,4.33-1,5.16-.42.49.36,2.82,2.27,2.82,2.27.67-.54,2.3-1.94,2.81-2.27a4.7,4.7,0,0,1,5.16.42,68.72,68.72,0,0,0,8.51,4.7"/>
      <path id="e57a2058-eb96-4cbd-84ae-d6ed62da9a9b" data-name="Group 1" class="aec3da78-b9b2-4707-8252-41d3548ec3ec" d="M142.45,181.73s-9.83,1-16.47,1-16.47-1-16.47-1"/>
      <path id="ace8c064-6ac8-49ad-9e96-dee76377f18e" data-name="Group 1" class="aec3da78-b9b2-4707-8252-41d3548ec3ec" d="M142.45,181.73s-9.83,1-16.47,1-16.47-1-16.47-1"/>
    </g>
  </g>
</svg>
