<svg id="a0b77bc1-7d74-4989-be9f-24fa1f0346de" data-name="Layer 1" xmlns="http://www.w3.org/2000/svg" viewBox="0 0 250 250">
  <defs>
    <style>
      .e3fc8d22-be53-4546-af3c-c3725480a997 {
        fill: #fff;
        stroke-width: 5px;
      }

      .a0c90a34-8053-4071-8c27-7049690e7dc9, .e3fc8d22-be53-4546-af3c-c3725480a997 {
        stroke: #000;
        stroke-linecap: round;
        stroke-linejoin: round;
      }

      .a0c90a34-8053-4071-8c27-7049690e7dc9 {
        fill: none;
        stroke-width: 3px;
      }

      .b4cf567c-242a-41b3-a76a-863d90a49066 {
        fill: #f40b37;
        opacity: 0.73;
      }
    </style>
  </defs>
  <g>
    <path class="e3fc8d22-be53-4546-af3c-c3725480a997" d="M81.73,174.64c.44,7.12,5.76,17.29,19.43,19.32,17.74,2.63,24.09-11.26,29.65-20.65,6-10.18,15.87-20.91,21-26.88,11.84-13.83,25.15-34.91,15.24-62.2S125,49.1,102.47,61.31s-24.82,40.7-22,52c5.64,22.35,13.13,23.33,5.57,40.91C84.49,157.89,81.06,163.91,81.73,174.64Z"/>
    <path class="a0c90a34-8053-4071-8c27-7049690e7dc9" d="M149.3,116.27S153,90,128.81,86.41s-31.29,20.51-27.52,30.33,12.29,9.89,14.62,2.17,15.66-6.89,18,2.19c1.8,7.09-.52,14.16-11,19.41s2.24,17-8,22.07c-5.83,2.91-9.82-.35-12.18-3.7"/>
  </g>
  <polygon class="b4cf567c-242a-41b3-a76a-863d90a49066" points="201.82 157.88 184.38 175.31 166.94 157.88 157.34 167.48 174.78 184.92 157.34 202.36 166.94 211.96 184.38 194.52 201.82 211.96 211.43 202.36 193.99 184.92 211.43 167.48 201.82 157.88"/>
</svg>
