<svg id="ee079b69-b03b-45e6-9682-43cabf1aa101" data-name="Layer 1" xmlns="http://www.w3.org/2000/svg" viewBox="0 0 250 250">
  <defs>
    <style>
      .f8c7c191-ac35-4f20-8b4e-2b016a55d994 {
        fill: #3b27ff;
        stroke: #3b27ff;
        stroke-width: 5px;
        opacity: 0.73;
      }

      .a7413214-f2b0-4c5a-b6ae-21b63f4543e3, .f8c7c191-ac35-4f20-8b4e-2b016a55d994 {
        stroke-linecap: round;
        stroke-linejoin: round;
      }

      .a7413214-f2b0-4c5a-b6ae-21b63f4543e3 {
        fill: none;
        stroke: #fff;
        stroke-width: 4px;
      }
    </style>
  </defs>
  <g>
    <path class="f8c7c191-ac35-4f20-8b4e-2b016a55d994" d="M81.73,174.76c.44,7.12,5.76,17.29,19.43,19.32,17.74,2.64,24.09-11.25,29.65-20.64,6-10.19,15.87-20.91,21-26.88,11.84-13.83,25.15-34.91,15.24-62.2s-42-35.14-64.55-22.92-24.82,40.69-22,52c5.64,22.35,13.13,23.33,5.57,40.92C84.49,158,81.06,164,81.73,174.76Z"/>
    <path class="a7413214-f2b0-4c5a-b6ae-21b63f4543e3" d="M149.3,116.39S153,90.12,128.81,86.53s-31.29,20.52-27.52,30.33,12.29,9.89,14.62,2.17,15.66-6.88,18,2.19c1.8,7.09-.52,14.16-11,19.42s2.24,16.94-8,22.07c-5.83,2.91-9.82-.35-12.18-3.71"/>
  </g>
</svg>
