<svg id="aa7a2170-5fc5-4c61-871e-3d16074dda02" data-name="Layer 1" xmlns="http://www.w3.org/2000/svg" viewBox="0 0 250 250">
  <defs>
    <style>
      .a7eb74c7-99cc-412e-89bb-3d38d5c9a310 {
        fill: #fff;
        stroke-width: 5px;
      }

      .a2502821-1003-4505-96dd-5128ea13b79f, .a7eb74c7-99cc-412e-89bb-3d38d5c9a310 {
        stroke: #000;
        stroke-linecap: round;
        stroke-linejoin: round;
      }

      .a2502821-1003-4505-96dd-5128ea13b79f {
        fill: none;
        stroke-width: 3px;
      }
    </style>
  </defs>
  <g>
    <path class="a7eb74c7-99cc-412e-89bb-3d38d5c9a310" d="M81.73,174.64c.44,7.12,5.76,17.29,19.43,19.32,17.74,2.63,24.09-11.26,29.65-20.65,6-10.18,15.87-20.91,21-26.88,11.84-13.83,25.15-34.91,15.24-62.2S125,49.1,102.47,61.31s-24.82,40.7-22,52c5.64,22.35,13.13,23.33,5.57,40.91C84.49,157.89,81.06,163.91,81.73,174.64Z"/>
    <path class="a2502821-1003-4505-96dd-5128ea13b79f" d="M149.3,116.27S153,90,128.81,86.41s-31.29,20.51-27.52,30.33,12.29,9.89,14.62,2.17,15.66-6.89,18,2.19c1.8,7.09-.52,14.16-11,19.41s2.24,17-8,22.07c-5.83,2.91-9.82-.35-12.18-3.7"/>
  </g>
</svg>
