<svg id="ab781e07-8d79-440d-9031-ade1190298a7" data-name="Layer 1" xmlns="http://www.w3.org/2000/svg" viewBox="0 0 250 250">
  <defs>
    <style>
      .e668c718-1654-45d9-9dc4-acccfdb8e2fe {
        fill: #3b27ff;
        stroke: #3b27ff;
        stroke-width: 5px;
        opacity: 0.73;
      }

      .a3a12c18-7776-4d2c-9ceb-9a5ded386f9d, .e668c718-1654-45d9-9dc4-acccfdb8e2fe {
        stroke-linecap: round;
        stroke-linejoin: round;
      }

      .a3a12c18-7776-4d2c-9ceb-9a5ded386f9d {
        fill: none;
        stroke: #fff;
        stroke-width: 4px;
      }

      .b0045601-3965-4c7d-b7d8-817773dbb797 {
        fill: #fff;
      }
    </style>
  </defs>
  <g>
    <path class="e668c718-1654-45d9-9dc4-acccfdb8e2fe" d="M58.9,94.78c.52-19.15,15.5-35,34.63-36.06a572.92,572.92,0,0,1,62.44,0,36.8,36.8,0,0,1,34.56,35q1.47,31.85.1,62.78a36.86,36.86,0,0,1-35.39,35q-30.36,1.2-60.89,0a37.06,37.06,0,0,1-35.47-36.12C58.54,143,58.81,107.2,58.9,94.78Z"/>
    <path class="a3a12c18-7776-4d2c-9ceb-9a5ded386f9d" d="M168.55,89a12.82,12.82,0,1,1-12.82-12.83A12.82,12.82,0,0,1,168.55,89Z"/>
    <polygon class="b0045601-3965-4c7d-b7d8-817773dbb797" points="60.04 158.79 59.23 153.12 102.73 93.64 140.47 143.8 137.28 146.2 102.77 100.36 60.04 158.79"/>
    <polygon class="b0045601-3965-4c7d-b7d8-817773dbb797" points="108.02 191.3 103.16 191.16 157.25 117.5 189.6 160.24 188.32 165.19 157.3 124.2 108.02 191.3"/>
  </g>
</svg>
