<svg id="e80d1f14-b2df-4b2a-9c70-8527055612bb" data-name="Layer 1" xmlns="http://www.w3.org/2000/svg" viewBox="0 0 250 250">
  <defs>
    <style>
      .b11bbada-b549-4ba7-85fc-4cf6eef25cfa, .b55b179f-264a-4c04-8b5d-687ce2882015, .bf0f7063-dc22-4945-b98b-c29ed6c8eee6, .f25a9103-3391-4b34-a193-bda9b71ea63e {
        fill: #fff;
      }

      .a3595113-000c-4dab-a99e-3f0f2b79e26c, .b11bbada-b549-4ba7-85fc-4cf6eef25cfa, .b55b179f-264a-4c04-8b5d-687ce2882015, .bf0f7063-dc22-4945-b98b-c29ed6c8eee6 {
        stroke: #000;
      }

      .b55b179f-264a-4c04-8b5d-687ce2882015 {
        stroke-miterlimit: 10;
      }

      .a3595113-000c-4dab-a99e-3f0f2b79e26c {
        fill: none;
      }

      .a3595113-000c-4dab-a99e-3f0f2b79e26c, .b11bbada-b549-4ba7-85fc-4cf6eef25cfa, .bf0f7063-dc22-4945-b98b-c29ed6c8eee6 {
        stroke-linecap: round;
        stroke-linejoin: round;
      }

      .a3595113-000c-4dab-a99e-3f0f2b79e26c, .b11bbada-b549-4ba7-85fc-4cf6eef25cfa {
        stroke-width: 5px;
      }

      .bf0f7063-dc22-4945-b98b-c29ed6c8eee6 {
        stroke-width: 3px;
      }
    </style>
  </defs>
  <g>
    <line class="b55b179f-264a-4c04-8b5d-687ce2882015" x1="163.06" y1="165.9" x2="154.15" y2="165.9"/>
    <polyline class="b55b179f-264a-4c04-8b5d-687ce2882015" points="162.26 150.69 153.34 150.69 145.9 150.69"/>
    <line class="b55b179f-264a-4c04-8b5d-687ce2882015" x1="157.69" y1="181.12" x2="154.15" y2="181.12"/>
    <polyline class="b55b179f-264a-4c04-8b5d-687ce2882015" points="163.06 165.9 154.15 165.9 149.92 165.9"/>
    <path class="f25a9103-3391-4b34-a193-bda9b71ea63e" d="M170.45,173.51a7.51,7.51,0,0,1-7.39,7.61h-5.37a7.61,7.61,0,0,1,0,15.21H118.86c-6.1,0-22.55-1.48-22.55-13.67V143.09S109,139.56,115,122a38.73,38.73,0,0,0,2.41-14.92,6.34,6.34,0,0,1,7.46-6.66c4.1.79,8.38,3.42,9.77,10.51,2.85,14.46-.8,24.53-.8,24.53h28.42a7.61,7.61,0,0,1,0,15.21h.8a7.61,7.61,0,0,1,0,15.21A7.51,7.51,0,0,1,170.45,173.51Z"/>
    <line class="b55b179f-264a-4c04-8b5d-687ce2882015" x1="162.26" y1="150.69" x2="153.34" y2="150.69"/>
    <polyline class="b55b179f-264a-4c04-8b5d-687ce2882015" points="157.69 181.12 154.15 181.12 144.55 181.12"/>
    <path class="a3595113-000c-4dab-a99e-3f0f2b79e26c" d="M145.9,150.7h17.16a7.61,7.61,0,0,1,0,15.21h-8.91"/>
    <path class="a3595113-000c-4dab-a99e-3f0f2b79e26c" d="M149.92,165.91h13.14a7.61,7.61,0,0,1,0,15.21h-8.91"/>
    <path class="a3595113-000c-4dab-a99e-3f0f2b79e26c" d="M144.55,181.12h13.14a7.61,7.61,0,0,1,0,15.21H118.86c-6.1,0-22.55-1.47-22.55-13.66V143.09S109,139.56,115,122a38.73,38.73,0,0,0,2.41-14.92,6.35,6.35,0,0,1,7.46-6.67c4.1.8,8.38,3.42,9.77,10.51,2.85,14.46-.8,24.54-.8,24.54h28.42a7.61,7.61,0,0,1,0,15.21h-8.92"/>
    <polygon class="bf0f7063-dc22-4945-b98b-c29ed6c8eee6" points="125.69 80.66 113.89 88.06 117.29 74.55 106.6 65.62 120.5 64.68 125.69 51.75 130.88 64.68 144.78 65.62 134.09 74.55 137.49 88.06 125.69 80.66"/>
    <polygon class="bf0f7063-dc22-4945-b98b-c29ed6c8eee6" points="178.32 99.61 166.52 107.01 169.92 93.5 159.23 84.57 173.13 83.63 178.32 70.7 183.51 83.63 197.41 84.57 186.72 93.5 190.12 107.01 178.32 99.61"/>
    <polygon class="bf0f7063-dc22-4945-b98b-c29ed6c8eee6" points="73.73 99.53 61.93 106.94 65.33 93.43 54.64 84.5 68.54 83.55 73.73 70.63 78.92 83.55 92.83 84.5 82.13 93.43 85.53 106.94 73.73 99.53"/>
    <rect class="b11bbada-b549-4ba7-85fc-4cf6eef25cfa" x="64.49" y="137.16" width="31.81" height="56.9"/>
  </g>
</svg>
