<svg id="adbb4525-a197-451b-b451-3d3e505801d3" data-name="Layer 1" xmlns="http://www.w3.org/2000/svg" viewBox="0 0 250 250">
  <defs>
    <style>
      .b1dbebb4-a13d-4891-9898-06664d1c94b1 {
        fill: #fff;
        stroke: #000;
        stroke-miterlimit: 10;
      }

      .e74d4c07-df21-45df-854a-d9357cf26321, .f614aa48-5924-4cae-861f-1582276fb80c {
        fill: #3b27ff;
        opacity: 0.73;
      }

      .b7bf001c-7765-4eb8-a9d2-91ab2744d897 {
        fill: none;
        stroke: #fff;
        stroke-width: 4px;
      }

      .b7bf001c-7765-4eb8-a9d2-91ab2744d897, .e74d4c07-df21-45df-854a-d9357cf26321 {
        stroke-linecap: round;
        stroke-linejoin: round;
      }

      .e74d4c07-df21-45df-854a-d9357cf26321 {
        stroke: #3b27ff;
        stroke-width: 5px;
      }
    </style>
  </defs>
  <g>
    <line class="b1dbebb4-a13d-4891-9898-06664d1c94b1" x1="162.03" y1="166.86" x2="153.12" y2="166.86"/>
    <polyline class="b1dbebb4-a13d-4891-9898-06664d1c94b1" points="161.23 151.65 152.31 151.65 144.87 151.65"/>
    <line class="b1dbebb4-a13d-4891-9898-06664d1c94b1" x1="156.66" y1="182.08" x2="153.12" y2="182.08"/>
    <polyline class="b1dbebb4-a13d-4891-9898-06664d1c94b1" points="162.03 166.86 153.12 166.86 148.89 166.86"/>
    <path class="f614aa48-5924-4cae-861f-1582276fb80c" d="M169.42,174.47a7.51,7.51,0,0,1-7.39,7.61h-5.37a7.61,7.61,0,0,1,0,15.21H117.83c-6.1,0-22.55-1.48-22.55-13.67V144.05S108,140.52,114,123a38.73,38.73,0,0,0,2.41-14.92,6.34,6.34,0,0,1,7.46-6.66c4.1.79,8.38,3.42,9.77,10.51,2.85,14.46-.8,24.53-.8,24.53h28.42a7.61,7.61,0,0,1,0,15.21h.8a7.61,7.61,0,0,1,0,15.21A7.51,7.51,0,0,1,169.42,174.47Z"/>
    <line class="b1dbebb4-a13d-4891-9898-06664d1c94b1" x1="161.23" y1="151.65" x2="152.31" y2="151.65"/>
    <polyline class="b1dbebb4-a13d-4891-9898-06664d1c94b1" points="156.66 182.08 153.12 182.08 143.52 182.08"/>
    <path class="b7bf001c-7765-4eb8-a9d2-91ab2744d897" d="M144.88,151.66H162a7.61,7.61,0,0,1,0,15.21h-8.91"/>
    <path class="b7bf001c-7765-4eb8-a9d2-91ab2744d897" d="M148.9,166.87H162a7.61,7.61,0,0,1,0,15.21h-8.91"/>
    <path class="b7bf001c-7765-4eb8-a9d2-91ab2744d897" d="M143.52,182.08h13.14a7.61,7.61,0,0,1,0,15.21H117.83c-6.09,0-22.55-1.47-22.55-13.66V144.05S108,140.52,114,123a39,39,0,0,0,2.42-14.93,6.34,6.34,0,0,1,7.46-6.66c4.1.8,8.37,3.42,9.77,10.51,2.84,14.46-.81,24.53-.81,24.53h28.42a7.61,7.61,0,0,1,0,15.22h-8.91"/>
    <polygon class="e74d4c07-df21-45df-854a-d9357cf26321" points="124.66 81.61 112.86 89.02 116.26 75.51 105.57 66.58 119.47 65.64 124.66 52.71 129.85 65.64 143.75 66.58 133.06 75.51 136.46 89.02 124.66 81.61"/>
    <polygon class="e74d4c07-df21-45df-854a-d9357cf26321" points="177.29 100.56 165.49 107.97 168.89 94.46 158.2 85.53 172.1 84.59 177.29 71.66 182.49 84.59 196.38 85.53 185.69 94.46 189.09 107.97 177.29 100.56"/>
    <polygon class="e74d4c07-df21-45df-854a-d9357cf26321" points="72.71 100.49 60.91 107.9 64.31 94.39 53.62 85.45 67.52 84.51 72.71 71.58 77.9 84.51 91.8 85.45 81.11 94.39 84.51 107.9 72.71 100.49"/>
    <rect class="f614aa48-5924-4cae-861f-1582276fb80c" x="63.47" y="138.12" width="31.81" height="56.9"/>
    <rect class="b7bf001c-7765-4eb8-a9d2-91ab2744d897" x="63.47" y="138.12" width="31.81" height="56.9"/>
  </g>
</svg>
