<svg id="b4c4dd4a-2a22-4dc6-9e6b-ce3db6552045" data-name="Layer 1" xmlns="http://www.w3.org/2000/svg" viewBox="0 0 250 250">
  <defs>
    <style>
      .a06af4c2-cfeb-4a41-b5d5-59649ff000de, .b0189e31-280b-487c-ba0d-2c33d5c6b18b, .b01c041a-c875-4bcb-82fe-1a7749f4c68f, .bcce615c-1b58-4c9a-9fcd-bf5de9e8626c {
        fill: #fff;
      }

      .a06af4c2-cfeb-4a41-b5d5-59649ff000de, .b01c041a-c875-4bcb-82fe-1a7749f4c68f, .bc7e8ab6-9521-4374-8218-7a563c100350, .bcce615c-1b58-4c9a-9fcd-bf5de9e8626c {
        stroke: #000;
      }

      .b01c041a-c875-4bcb-82fe-1a7749f4c68f {
        stroke-miterlimit: 10;
      }

      .bc7e8ab6-9521-4374-8218-7a563c100350 {
        fill: none;
      }

      .a06af4c2-cfeb-4a41-b5d5-59649ff000de, .bc7e8ab6-9521-4374-8218-7a563c100350, .bcce615c-1b58-4c9a-9fcd-bf5de9e8626c {
        stroke-linecap: round;
        stroke-linejoin: round;
      }

      .bc7e8ab6-9521-4374-8218-7a563c100350, .bcce615c-1b58-4c9a-9fcd-bf5de9e8626c {
        stroke-width: 5px;
      }

      .a06af4c2-cfeb-4a41-b5d5-59649ff000de {
        stroke-width: 3px;
      }

      .a87bb0b9-dd2e-40d8-92ce-0936568e9d37 {
        fill: #f40b37;
        opacity: 0.73;
      }
    </style>
  </defs>
  <g>
    <line class="b01c041a-c875-4bcb-82fe-1a7749f4c68f" x1="162.03" y1="166.86" x2="153.12" y2="166.86"/>
    <polyline class="b01c041a-c875-4bcb-82fe-1a7749f4c68f" points="161.23 151.65 152.31 151.65 144.87 151.65"/>
    <line class="b01c041a-c875-4bcb-82fe-1a7749f4c68f" x1="156.66" y1="182.08" x2="153.12" y2="182.08"/>
    <polyline class="b01c041a-c875-4bcb-82fe-1a7749f4c68f" points="162.03 166.86 153.12 166.86 148.89 166.86"/>
    <path class="b0189e31-280b-487c-ba0d-2c33d5c6b18b" d="M169.42,174.47a7.51,7.51,0,0,1-7.39,7.61h-5.37a7.61,7.61,0,0,1,0,15.21H117.83c-6.1,0-22.55-1.48-22.55-13.67V144.05S108,140.52,114,123a38.73,38.73,0,0,0,2.41-14.92,6.34,6.34,0,0,1,7.46-6.66c4.1.79,8.38,3.42,9.77,10.51,2.85,14.46-.8,24.53-.8,24.53h28.42a7.61,7.61,0,0,1,0,15.21h.8a7.61,7.61,0,0,1,0,15.21A7.51,7.51,0,0,1,169.42,174.47Z"/>
    <line class="b01c041a-c875-4bcb-82fe-1a7749f4c68f" x1="161.23" y1="151.65" x2="152.31" y2="151.65"/>
    <polyline class="b01c041a-c875-4bcb-82fe-1a7749f4c68f" points="156.66 182.08 153.12 182.08 143.52 182.08"/>
    <path class="bc7e8ab6-9521-4374-8218-7a563c100350" d="M144.88,151.66H162a7.61,7.61,0,0,1,0,15.21h-8.91"/>
    <path class="bc7e8ab6-9521-4374-8218-7a563c100350" d="M148.9,166.87H162a7.61,7.61,0,0,1,0,15.21h-8.91"/>
    <path class="bc7e8ab6-9521-4374-8218-7a563c100350" d="M143.52,182.08h13.14a7.61,7.61,0,0,1,0,15.21H117.83c-6.09,0-22.55-1.47-22.55-13.66V144.05S108,140.52,114,123a39,39,0,0,0,2.42-14.93,6.34,6.34,0,0,1,7.46-6.66c4.1.8,8.37,3.42,9.77,10.51,2.84,14.46-.81,24.53-.81,24.53h28.42a7.61,7.61,0,0,1,0,15.22h-8.91"/>
    <polygon class="a06af4c2-cfeb-4a41-b5d5-59649ff000de" points="124.66 81.61 112.86 89.02 116.26 75.51 105.57 66.58 119.47 65.64 124.66 52.71 129.85 65.64 143.75 66.58 133.06 75.51 136.46 89.02 124.66 81.61"/>
    <polygon class="a06af4c2-cfeb-4a41-b5d5-59649ff000de" points="177.29 100.56 165.49 107.97 168.89 94.46 158.2 85.53 172.1 84.59 177.29 71.66 182.49 84.59 196.38 85.53 185.69 94.46 189.09 107.97 177.29 100.56"/>
    <polygon class="a06af4c2-cfeb-4a41-b5d5-59649ff000de" points="72.71 100.49 60.91 107.9 64.31 94.39 53.62 85.45 67.52 84.51 72.71 71.58 77.9 84.51 91.8 85.45 81.11 94.39 84.51 107.9 72.71 100.49"/>
    <rect class="bcce615c-1b58-4c9a-9fcd-bf5de9e8626c" x="63.47" y="138.12" width="31.81" height="56.9"/>
  </g>
  <polygon class="a87bb0b9-dd2e-40d8-92ce-0936568e9d37" points="201.83 157.88 184.39 175.31 166.95 157.88 157.35 167.48 174.78 184.92 157.35 202.36 166.95 211.96 184.39 194.52 201.83 211.96 211.43 202.36 193.99 184.92 211.43 167.48 201.83 157.88"/>
</svg>
