<svg id="ad1361d8-27bc-4b6c-9597-346f3f1f4ab1" data-name="Layer 1" xmlns="http://www.w3.org/2000/svg" viewBox="0 0 250 250">
  <defs>
    <style>
      .b5101d4c-bcef-4590-9242-7bd873b9f4f1, .fd4e5eed-acce-4e63-8497-df573e7cf8ae {
        fill: #fff;
        stroke: #000;
      }

      .b5101d4c-bcef-4590-9242-7bd873b9f4f1 {
        stroke-linejoin: round;
        stroke-width: 5px;
      }

      .fd4e5eed-acce-4e63-8497-df573e7cf8ae {
        stroke-miterlimit: 10;
      }
    </style>
  </defs>
  <g>
    <path id="bf0e9765-91d9-49c1-8437-00198a89dd2a" data-name="Group 1" class="b5101d4c-bcef-4590-9242-7bd873b9f4f1" d="M203.43,91.55a21.62,21.62,0,0,1-.34,3c-2.11,11.63-10.72,18.41-17.3,20.28.39,11-1.65,19.78-6.2,26.61-11.26,16.93-23,20.48-24.34,20.85l-2.65.49c-1.64,4-3,12.46,0,22.25,4,12.87,6.32,15,6.57,15.48a2.82,2.82,0,0,1,.29,3,3,3,0,0,1-2.63,1.68l-59.74,3.38h-.34a2.66,2.66,0,0,1-2.06-.75,2.57,2.57,0,0,1-.78-2.15c-.09-.51-.48-2.49-2.09-8.45-1.45-5.34-4-8.29-7.19-8.29-2.71,0-13,.84-18,1.28l-7.41.08h-.11a11.72,11.72,0,0,1-10-5.53c-1.51-2.37-2.53-5.86-1.38-8.31.22-.48.45-.9.65-1.28a11,11,0,0,0,1-2.1,3.71,3.71,0,0,1-4.27.73c-1.84-1-4.1-2.52-4-6s2.74-4.32,4.14-5c-2.33-1-5.59-3.34-5.18-7.42.26-2.7,2-4.28,4.75-4.92a8.87,8.87,0,0,0-1.28-2.69c-.37-.51-.75-.75-1-.75a7,7,0,0,1-6.25-4.1,9.15,9.15,0,0,1,1-9.23c.43-.55,1.07-1.24,1.89-2.11,3.85-4.12,11.87-12.7,9.41-19.73C44.77,101,47.1,93.11,50.63,81.11l.46-1.57L51.54,78c1.81-6.39,7-14.05,11.08-18.53,1.74-2.07,8.47-7.57,16-12.08a72,72,0,0,1,38.2-10.58,93.59,93.59,0,0,1,9.94.41c19,2.13,32.21,8.73,41.28,18.87,2.13-1.4,5.64-3.8,9.24-3.8a10.85,10.85,0,0,1,6.2,1.92,11.38,11.38,0,0,1,2.43-.25c7.38,0,15.92,6.6,20.76,16C211.41,79.25,207,87.73,203.43,91.55Z"/>
    <path d="M61.84,122.45a.76.76,0,0,1-.43-.14l-.12-.08a4.66,4.66,0,0,1-2.36-4,8.91,8.91,0,0,1,1.15-4,.76.76,0,0,1,.6-.4,10.81,10.81,0,0,1,2.8.08.77.77,0,0,1,.55.41,9.67,9.67,0,0,1,0,7.3.81.81,0,0,1-.27.31,2.13,2.13,0,0,1-1.19.34,1.08,1.08,0,0,0-.46.07A.71.71,0,0,1,61.84,122.45Zm1.52-1.1h0Zm-2.13-6a7.16,7.16,0,0,0-.8,2.92A3,3,0,0,0,62,120.87a2.61,2.61,0,0,1,.58-.05l.24,0a8.54,8.54,0,0,0,0-5.41A8.43,8.43,0,0,0,61.23,115.34Z"/>
    <path d="M63.41,62.41a58.68,58.68,0,0,1,10.64-9.76l1.46-1.08,1.51-1c1-.64,2-1.35,3.08-1.92l3.16-1.78,3.28-1.58c.54-.25,1.08-.53,1.64-.76l1.7-.65c1.13-.43,2.26-.88,3.4-1.29l3.49-1L98.51,41c.59-.16,1.19-.26,1.78-.39l3.56-.75.9-.18.9-.12,1.81-.22,3.61-.43c1.22-.08,2.43-.09,3.65-.14l3.64-.11,3.64.21,3.64.23,3.6.5,3.61.51c1.19.23,2.37.51,3.56.76s2.38.48,3.56.8l3.5,1,1.75.52c.58.18,1.14.44,1.71.65l3.41,1.34c1.12.49,2.19,1.09,3.29,1.62l1.64.83c.52.31,1,.65,1.56,1,1,.68,2.1,1.26,3.07,2L162.81,53c.92.81,1.79,1.7,2.68,2.54.22.22.45.42.66.65l.6.7,1.2,1.41a45,45,0,0,1,7.19,12.8,62.07,62.07,0,0,1,2.12,7c.56,2.39,1,4.74,1.54,7.08,2.07,9.37,4.28,18.86,4.68,28.59a57.74,57.74,0,0,1-1,14.54,33.17,33.17,0,0,1-5.89,13.3,62.32,62.32,0,0,1-9.46,11c-3.68,3.1-8.06,6.06-12.7,7.41a28,28,0,0,0,6.5-3.41,47.61,47.61,0,0,0,5.72-4.48,62,62,0,0,0,9.13-11,32.27,32.27,0,0,0,5.47-13,56.71,56.71,0,0,0,.74-14.2c-.62-9.53-2.75-18.9-4.92-28.28-.54-2.35-1-4.73-1.57-7a63.31,63.31,0,0,0-2.1-6.78,43.31,43.31,0,0,0-6.95-12.21l-1.13-1.35-.57-.67c-.2-.22-.42-.42-.63-.62-.84-.81-1.66-1.66-2.54-2.44l-2.76-2.2c-.93-.72-2-1.29-3-2-.5-.31-1-.65-1.49-1l-1.58-.81c-1.06-.52-2.09-1.11-3.17-1.58l-3.3-1.33c-.55-.21-1.09-.46-1.66-.64l-1.7-.52-3.41-1.05c-1.15-.31-2.32-.53-3.48-.8s-2.33-.53-3.49-.76L129,41.35l-3.54-.52-3.56-.26-3.57-.27-3.57,0c-1.19,0-2.38,0-3.57.07l-3.56.36-1.78.18L105,41l-.87.17-3.52.67c-.58.12-1.18.2-1.75.35l-1.73.48-3.45.95c-1.13.38-2.25.81-3.37,1.21l-1.69.61c-.55.22-1.09.48-1.64.72l-3.28,1.45-3.18,1.67c-1.08.52-2.07,1.2-3.1,1.8l-1.54.94-1.48,1c-1,.67-2,1.35-2.92,2.1s-1.9,1.46-2.8,2.25a49.11,49.11,0,0,0-5.22,5"/>
    <path d="M191.45,88.37h-.1a.74.74,0,0,1-.64-.84c.64-4.84.69-14.71-6.24-26.51-1.62-2.77-3.67-4.35-6.09-4.72-5-.74-10,3.85-10.08,3.89a.75.75,0,1,1-1-1.1c.23-.21,5.62-5.12,11.31-4.27,2.89.43,5.31,2.26,7.18,5.44,7.15,12.19,7.1,22.44,6.43,27.47A.76.76,0,0,1,191.45,88.37Z"/>
    <path d="M182.81,113.32a.75.75,0,0,1-.05-1.5c4.74-.36,14.48-5.93,16.63-17.73,2.06-11.32-7.47-14.3-7.87-14.43a.75.75,0,1,1,.43-1.43c.11,0,11.21,3.5,8.91,16.13s-12.85,18.57-18,19Z"/>
    <path id="f29607c3-f5c5-4a2c-8275-91250a1c10cb" data-name="Group 14" d="M123,127.87a6.54,6.54,0,0,0-1.27-5,5.77,5.77,0,0,0-4.8-1.54,4.67,4.67,0,0,0-3.8,3.06,5.37,5.37,0,0,0-.4,2.53,2.44,2.44,0,0,0,1.05,1.79.53.53,0,0,0,.57,0,.89.89,0,0,0,.27-.3c.09-.14.1-.22.3-.64a2.59,2.59,0,0,1,1.7-1.3,3.42,3.42,0,0,1,3.55,1.27,3.66,3.66,0,0,1,.61,1.82,4.2,4.2,0,0,1-1.2,3.35,6.38,6.38,0,0,1-1.36,1,7.24,7.24,0,0,1-.73.38,3.08,3.08,0,0,0-.28.15.55.55,0,0,0-.21.14,1,1,0,0,0-.38.82,10.79,10.79,0,0,0,.07,1.42,3.07,3.07,0,0,1-.4,1.86,2.76,2.76,0,0,1-1.62,1.08,2.16,2.16,0,0,1-2.72-1.78,4.4,4.4,0,0,0,1.29.64,1.8,1.8,0,0,0,1.08-.09,1.3,1.3,0,0,0,1-1.63,11.93,11.93,0,0,1-.1-1.59,2.43,2.43,0,0,1,.86-1.83,2.19,2.19,0,0,1,.41-.29l.38-.21c.21-.1.41-.21.61-.33a4.49,4.49,0,0,0,1-.81,2.64,2.64,0,0,0,.73-2.18,1.84,1.84,0,0,0-.34-1A1.66,1.66,0,0,0,118,128c-.68-.24-1.47,0-1.64.44a6.59,6.59,0,0,1-.34.73,2.8,2.8,0,0,1-.72.83,2.39,2.39,0,0,1-1.13.42,2.29,2.29,0,0,1-1.17-.21,3.28,3.28,0,0,1-1.45-1.4,5.61,5.61,0,0,1-.38-.83,4.14,4.14,0,0,1-.21-.91,7.25,7.25,0,0,1,2.5-6.18,6,6,0,0,1,3.19-1.36,8.2,8.2,0,0,1,3.35.34,6.35,6.35,0,0,1,2.91,1.84,6.67,6.67,0,0,1,1.46,3.07,9.43,9.43,0,0,1,0,3.31.75.75,0,0,1-1.48-.2Z"/>
    <path id="b3ad9728-ddad-42ca-a6e6-0c4db3d499d4" data-name="Group 13" d="M54,104.4s10-4.81,11.29-5,7.84,6.27,7.84,6.27-.89.33-3-.52-3.07-1.67-4.38-1.67-7.15,2.94-8.91,3.77-5-1.88-2.88-2.9"/>
    <path id="fce81e28-823b-47d1-9fd5-ed60008d1576" data-name="Group 12" d="M70.48,115.47a10.72,10.72,0,0,0-3.84-2,11.31,11.31,0,0,0-4.21-.43l-.69.07a8,8,0,0,1-1.17.09,4.45,4.45,0,0,1-1.63-.24,3.85,3.85,0,0,1-2.36-2.26.38.38,0,0,0-.44-.22.36.36,0,0,0-.28.4,4.5,4.5,0,0,0,2.48,3.51,6.18,6.18,0,0,0,2.14.61,10,10,0,0,0,1.43,0h.61a11,11,0,0,1,3.48.53,11.41,11.41,0,0,1,2.22,1,13.17,13.17,0,0,1-1.32,1.52,14.1,14.1,0,0,1-2.46,1.9,13.46,13.46,0,0,1-2.88,1.26,17.17,17.17,0,0,1-3.2.58.37.37,0,0,0-.34.35.37.37,0,0,0,.31.39,11.26,11.26,0,0,0,1.93.16,11.83,11.83,0,0,0,5-1.12,12.78,12.78,0,0,0,3-2,12.38,12.38,0,0,0,2.4-2.79A1.08,1.08,0,0,0,70.48,115.47Z"/>
    <path id="ac1c40ca-6d89-406f-8c26-10d380439fa2" data-name="Group 11" d="M60.43,112.25a4.07,4.07,0,0,1,2-2.52,3.39,3.39,0,0,1,1.72-.34,4.9,4.9,0,0,1,1.66.48,9.17,9.17,0,0,1,2.53,2,14.49,14.49,0,0,1,1.85,2.56c-.83-.64-1.6-1.34-2.39-2a13.4,13.4,0,0,0-2.44-1.7,3.34,3.34,0,0,0-2.63-.31,5.34,5.34,0,0,0-2.31,1.8"/>
    <g id="bf25ee39-811e-49b5-ae43-4fa21addabd7" data-name="Group 10">
      <path id="f892f3a3-14fc-4e56-8635-c60326b5e6aa" data-name="Group 2" d="M48.86,142l-.14-.19a4.24,4.24,0,0,0-1.28-1.25,2.78,2.78,0,0,0-1.34-.37,3.67,3.67,0,0,0-1.16.21,3,3,0,0,0-1.7,1.4.37.37,0,0,0,0,.39.35.35,0,0,0,.34.17,13.09,13.09,0,0,1,1.65-.09,6.08,6.08,0,0,1,.65.08,1.25,1.25,0,0,1,.41.15,4.17,4.17,0,0,1,.46.33,6,6,0,0,0,.83.6,3,3,0,0,0,1.6.49,2,2,0,0,0,.61-.08.37.37,0,0,0,.15-.64A7.79,7.79,0,0,1,48.86,142Z"/>
      <path id="a01a056d-b5bc-4c6c-8df8-804bd826c586" data-name="Group 1" d="M56.68,140.34a5.21,5.21,0,0,0-.4-1.46,4.69,4.69,0,0,0-1.93-2.18.37.37,0,0,0-.5.53,5.58,5.58,0,0,1,1,4.3A4,4,0,0,1,54,143.4a3.86,3.86,0,0,1-1.9,1.11.38.38,0,0,0,0,.73,3.17,3.17,0,0,0,.69.08,3.66,3.66,0,0,0,2.23-.79,4.52,4.52,0,0,0,1.57-2.63A5.82,5.82,0,0,0,56.68,140.34Z"/>
    </g>
    <path id="a2204e57-2264-473b-958b-e558696df8d9" data-name="Group 8" d="M154.06,157.09A37.68,37.68,0,0,0,150.14,168a34,34,0,0,0-.35,11.61,32.89,32.89,0,0,0,1.38,5.68l1.87,5.61c1.29,3.73,2.52,7.49,4.1,11.1-1.71-3.56-3.06-7.28-4.49-11l-2.07-5.54A33.63,33.63,0,0,1,149,179.7a35.26,35.26,0,0,1,0-11.95,38.51,38.51,0,0,1,3.76-11.42.75.75,0,0,1,1-.32.76.76,0,0,1,.32,1h0Z"/>
    <path id="bc626351-7740-42f5-95fe-1a3b85b1e1ba" data-name="Group 2" d="M106,156.35a.37.37,0,0,0-.44.21,30.49,30.49,0,0,1-3.55,5.81,41.73,41.73,0,0,1-4.54,5l-.18.17c-.76.69-1.55,1.41-2.4,2.05a18.75,18.75,0,0,1-1.68,1.31l-1,.77c-.28.23-.59.43-.89.64a5.39,5.39,0,0,0-.5.33l-1.42,1-.88.57c-.69.43-1.39.88-2.08,1.38a.39.39,0,0,0-.11.47.36.36,0,0,0,.33.21h.1c1.07-.28,2.19-.64,3.45-1.09l.89-.4a22.23,22.23,0,0,0,2.36-1.14,30,30,0,0,0,5.92-4.23,25.46,25.46,0,0,0,4.57-5.7,16.26,16.26,0,0,0,2.36-6.91A.38.38,0,0,0,106,156.35Z"/>
    <path id="e5d8372f-46a8-4466-ba8d-6c6e5908ff87" data-name="Group 5" d="M175.84,88.17a.38.38,0,0,0-.52,0,36.89,36.89,0,0,1-11.68,7.54,33.22,33.22,0,0,1-13.56,2.11c-1.12,0-2.29-.14-3.46-.27l-.79-.09c-.89-.1-1.82-.21-2.6-.37a19,19,0,0,1-6-2.78A33.77,33.77,0,0,1,131.91,90c-.56-.53-1.1-1.12-1.62-1.69l-.74-.8-.72-.87c-.49-.59-1-1.2-1.47-1.84a70.67,70.67,0,0,1-7.31-11.87l-.8-1.59-1.78-3.23c-.22-.34-.46-.67-.7-1l-.37-.51-1.07-1.5c-.26-.33-.54-.64-.83-.95l-.4-.44-1.24-1.35c-.28-.29-.58-.56-.89-.83l-.47-.42c-6.76-6-15.81-10-26.17-11.42a.38.38,0,0,0-.13.74A58.36,58.36,0,0,1,98.49,55a44.65,44.65,0,0,1,11.44,7.8l.46.43c.26.25.53.5.76.76l1.13,1.31c.14.18.29.35.44.52a7.9,7.9,0,0,1,.65.78l1,1.42.36.52c.21.3.42.59.59.88l1.61,3,.77,1.62a71.63,71.63,0,0,0,7.49,12.4c.51.68,1.06,1.33,1.6,2l.74.87.75.81c.57.61,1.15,1.25,1.77,1.82a35.25,35.25,0,0,0,5.76,4.62,21.63,21.63,0,0,0,6.92,3c1.06.19,2,.27,2.95.36l.72.06c1.24.1,2.46.16,3.64.17h.35a33.61,33.61,0,0,0,13.94-2.82,36.39,36.39,0,0,0,11.55-8.61A.38.38,0,0,0,175.84,88.17Z"/>
    <g id="e53362f1-e0ef-4753-bc31-500e2881769f" data-name="Group 4">
      <path id="f1ef9aa9-4019-4922-b5f4-e10bf6663933" data-name="Group 2" d="M110.57,117.46a12.15,12.15,0,0,1-5.1-1.61,17.13,17.13,0,0,1-4.1-3.44,36.2,36.2,0,0,1-5.8-9.19,66.49,66.49,0,0,1-3.71-10.36c-.49-1.76-.93-3.57-1.29-5.35l-.07-.35a50.33,50.33,0,0,0-1.22-5.24,42.68,42.68,0,0,0-4.72-10.53,33.29,33.29,0,0,0-7.65-8.7,17.53,17.53,0,0,0-5.21-2.86,9.46,9.46,0,0,0-3-.51,9.08,9.08,0,0,0-3,.58,11,11,0,0,0-4.68,3.65,16.19,16.19,0,0,0-2.63,5.13.37.37,0,0,0,.22.46.38.38,0,0,0,.48-.2,16.91,16.91,0,0,1,2.87-4.61,9.52,9.52,0,0,1,4.26-2.9,7.15,7.15,0,0,1,4.91.25,16.64,16.64,0,0,1,4.45,2.76,33,33,0,0,1,6.84,8.31,43.2,43.2,0,0,1,4.31,10c.54,1.81.91,3.56,1.26,5.35s.87,3.75,1.39,5.54a62.62,62.62,0,0,0,4.17,10.65,35.49,35.49,0,0,0,6.65,9.39,18.23,18.23,0,0,0,4.75,3.36,12.89,12.89,0,0,0,2.77,1,12,12,0,0,0,2.56.25h.34a.38.38,0,0,0,.37-.37A.37.37,0,0,0,110.57,117.46Z"/>
      <path id="bec4f4f6-0b85-4620-b979-fe56a2fd63a4" data-name="Group 1" d="M130.7,99.19c-.17-.18-.33-.36-.49-.55a10.75,10.75,0,0,0-1-1l-.46-.42c-.38-.33-.77-.68-1.18-1-1.17-.93-2.42-1.8-3.5-2.53-1.48-1-3-1.93-4.46-2.85-.92-.57-1.82-1.14-2.72-1.72l-.6-.38c-2.11-1.38-4.3-2.8-6.28-4.39a37.35,37.35,0,0,1-6-5.63,8.42,8.42,0,0,1-.9-1.13l-.33-.45-.07-.09a10.41,10.41,0,0,1-1-1.57l-2.11-3.7A34.1,34.1,0,0,0,94,65a37.8,37.8,0,0,0-14.94-8.6.37.37,0,0,0-.46.22.39.39,0,0,0,.2.48,44.08,44.08,0,0,1,7.27,4.17,42,42,0,0,1,6.31,5.36,35.42,35.42,0,0,1,4.94,6.51l2,3.72a13.08,13.08,0,0,0,1.16,1.79l.08.11.33.47a14.23,14.23,0,0,0,1,1.3c4.13,4.82,9.52,8.19,13.76,10.59,1.55.89,3.13,1.73,4.67,2.55l2.82,1.52a35.49,35.49,0,0,1,7,4.58.35.35,0,0,0,.25.1.38.38,0,0,0,.26-.11A.37.37,0,0,0,130.7,99.19Z"/>
    </g>
    <g id="ed7f3d60-35fc-4d7f-9523-b110a55d9b29" data-name="Group 3">
      <path id="a8030870-924a-4068-929d-33d4c01e60e5" data-name="Group 2" d="M129.21,120.64l-.34-.89a8.21,8.21,0,0,0-.6-1.31l-.28-.52a10.27,10.27,0,0,0-2.74-3,8,8,0,0,0-3.9-1.44,11.81,11.81,0,0,0-3.89.42,11.18,11.18,0,0,0-6.07,4.45.38.38,0,0,0,.59.47,10.8,10.8,0,0,1,5.88-3.24,10.22,10.22,0,0,1,3.27-.06,6.14,6.14,0,0,1,2.74,1.24,8.87,8.87,0,0,1,1.94,2.39l.24.5a5.87,5.87,0,0,1,.42,1l.25.75.19.82a14.35,14.35,0,0,1-.14,6.54,18,18,0,0,1-1.07,3.15c-.1.19-.2.39-.29.58s-.3.63-.48,1l-.87,1.56c-1.09,1.95-2.32,3.92-3.75,6a28.33,28.33,0,0,1-4.55,5.28,8.36,8.36,0,0,1-1,.76l-.33.24-.31.17A6.33,6.33,0,0,1,113,148a4.52,4.52,0,0,1-3.18,0,.36.36,0,0,0-.47.18.37.37,0,0,0,.13.48,5.1,5.1,0,0,0,2.71.75,5.52,5.52,0,0,0,1.14-.12,9.15,9.15,0,0,0,3.54-1.62,25.68,25.68,0,0,0,5.33-5.25,59.66,59.66,0,0,0,4.17-6.06,23,23,0,0,0,3.11-6.94,16.64,16.64,0,0,0,0-7.78Z"/>
      <path id="adc924b0-5d4d-4a7e-965b-e345f696fee9" data-name="Group 1" d="M140.94,145.62a.37.37,0,0,0-.46-.07l-.89.53c-.51.32-1,.61-1.52.88a17.23,17.23,0,0,1-2.42,1.09,15.26,15.26,0,0,1-2.54.69,17.3,17.3,0,0,1-2.69.3.38.38,0,0,0-.36.3.38.38,0,0,0,.22.42,6.86,6.86,0,0,0,2.71.5h.29a9.71,9.71,0,0,0,3-.57,10,10,0,0,0,2.64-1.44,8.89,8.89,0,0,0,2.07-2.16A.38.38,0,0,0,140.94,145.62Z"/>
    </g>
    <g id="bac85097-92df-4a10-ba45-af2e60a62d1b" data-name="Group 2">
      <path id="e99add8b-dd84-4013-956e-1acf374df58f" data-name="Group 2" d="M168.18,90.83A23.26,23.26,0,0,1,162.44,92a27.69,27.69,0,0,1-5.78-.34,25.41,25.41,0,0,1-10.5-4.3,10.59,10.59,0,0,1-3.51-4A39.6,39.6,0,0,0,139.53,78a61.3,61.3,0,0,0-7.88-9.36.38.38,0,0,0-.5,0,.37.37,0,0,0-.07.5c2.19,3.22,4.49,6.64,6.5,10.1a49.66,49.66,0,0,1,2.66,5.24,12.92,12.92,0,0,0,4.28,5.1,24.11,24.11,0,0,0,5.66,3,27.24,27.24,0,0,0,6.17,1.39c.72.07,1.46.1,2.21.1a26.08,26.08,0,0,0,4.08-.33,18.45,18.45,0,0,0,5.85-2.18.38.38,0,0,0-.31-.68Z"/>
      <path id="e76ca879-f1c1-440b-8ba4-a3f20b258631" data-name="Group 1" d="M173.14,75.12l-.79.07a15.46,15.46,0,0,1-3.25.07,13.12,13.12,0,0,1-3.75-.86,26.88,26.88,0,0,1-6.89-4.09.39.39,0,0,0-.47,0,.38.38,0,0,0-.09.46,11.57,11.57,0,0,0,2.8,3.43,13.06,13.06,0,0,0,3.87,2.3,10.43,10.43,0,0,0,3.75.69q.38,0,.75,0a9.22,9.22,0,0,0,4.28-1.35.36.36,0,0,0,.18-.43A.4.4,0,0,0,173.14,75.12Z"/>
    </g>
    <g id="e0477ca5-1e74-4e61-b0be-f7710b76572b" data-name="Group 1">
      <path id="fb4e42bb-c1c1-4332-9980-07bd14c6e66b" data-name="Group 4" d="M179.64,106.38a.36.36,0,0,0-.43.26,35.81,35.81,0,0,1-17.81,21.67,48.07,48.07,0,0,1-13.62,4.62,87.67,87.67,0,0,1-14.61,1.45.38.38,0,0,0,0,.75,58.17,58.17,0,0,0,8,.55,53.18,53.18,0,0,0,7.08-.46l.2,0c1.17-.17,2.38-.34,3.53-.62s2.36-.55,3.49-.87l.22-.07a39.88,39.88,0,0,0,7.09-2.9,37.73,37.73,0,0,0,6.37-4.31,32.53,32.53,0,0,0,5.22-5.64,29.72,29.72,0,0,0,5.66-14A.37.37,0,0,0,179.64,106.38Z"/>
      <path id="a14c8fca-65fb-495d-9d71-07dfb45dcc5a" data-name="Group 3" d="M156.63,148a33.51,33.51,0,0,0,7.15-6.79,30.93,30.93,0,0,0,4.87-8.46.37.37,0,0,0-.66-.34,63.82,63.82,0,0,1-6,7.29,44.42,44.42,0,0,1-7,6,30.53,30.53,0,0,1-3.92,2.37,31.27,31.27,0,0,1-4.2,1.82,36.67,36.67,0,0,1-9.12,1.87.36.36,0,0,0-.33.36.37.37,0,0,0,.31.38,24.11,24.11,0,0,0,4,.33,23.17,23.17,0,0,0,5.83-.73A27.43,27.43,0,0,0,156.63,148Z"/>
      <path id="a53dcabd-6e6a-4353-86a5-58ab37dcf4b9" data-name="Group 2" d="M178,120.46a.37.37,0,0,0-.47.21c-1.45,3.52-3.2,7.22-5.33,11.29a91,91,0,0,1-6.47,10.57,52,52,0,0,1-3.82,4.84,41.16,41.16,0,0,1-4.32,4.34,30.29,30.29,0,0,1-10.53,6.16.38.38,0,0,0-.24.45.36.36,0,0,0,.36.28h.06a25.06,25.06,0,0,0,6.11-2,29,29,0,0,0,5.46-3.43,44.43,44.43,0,0,0,8.75-9.36,73,73,0,0,0,10.68-22.93A.37.37,0,0,0,178,120.46Z"/>
      <path id="bf301911-dbb8-408b-a1f8-6197e797c3ea" data-name="Group 1" d="M151.88,115.6c1.19,0,2.38-.06,3.56-.17a36.53,36.53,0,0,0,7.1-1.53,35.05,35.05,0,0,0,6.61-3,39,39,0,0,0,10.71-9.38.37.37,0,0,0-.54-.51A54.72,54.72,0,0,1,168,108.89a37.41,37.41,0,0,1-12.89,3.81,42.05,42.05,0,0,1-13.47-.88,54.2,54.2,0,0,1-12.93-4.7.37.37,0,0,0-.49.13.38.38,0,0,0,.09.5,38.88,38.88,0,0,0,12.76,6.31A38.36,38.36,0,0,0,151.88,115.6Z"/>
    </g>
    <g id="ac34bec0-a27d-4f9c-be42-3d1834d59eea" data-name="lip1">
      <path id="a46696b8-561b-4b98-a4a1-6419a1cdf1a7" data-name="Group 1" class="fd4e5eed-acce-4e63-8497-df573e7cf8ae" d="M56.46,161.93a18.42,18.42,0,0,1-7.46.15c-4.06-.77-8.42-2.34-7.68-6l0-.14s1.3-5,6.26-3.28c2.21.79,6.33,8.66,9,9.2a16.65,16.65,0,0,1-7.47,10.78l-.06,0c-4.26,1.78-9-2.16-5.66-6.85,2.76-3.88,6.93-3.43,8.47-3.41a17.49,17.49,0,0,0,4.56-.46"/>
    </g>
    <path d="M200.68,90.81a.78.78,0,0,1-.55-.23.75.75,0,0,1,0-1.06c.34-.32,8.19-8,3.15-17.81S189.05,55.76,183.1,58.23a.75.75,0,0,1-.57-1.39c6.65-2.75,16.77,3.75,22.12,14.19,5.56,10.86-3.37,19.49-3.46,19.58A.78.78,0,0,1,200.68,90.81Z"/>
  </g>
</svg>
