<svg id="a8231699-640f-4a0c-8723-2ba0f0983118" data-name="Layer 1" xmlns="http://www.w3.org/2000/svg" viewBox="0 0 250 250">
  <defs>
    <style>
      .be9b4e56-6c42-445e-beb2-492c3faad30c {
        fill: #fff;
      }

      .ae6c4bf0-76f5-4274-9110-99319ce7f76c {
        fill: #3b27ff;
      }

      .bb44fc0e-ffdc-4dda-a7da-fb80618a13f9 {
        opacity: 0.73;
      }

      .a1557273-a3c8-41ae-a714-04fd0e50516c {
        fill: none;
        stroke: #fff;
        stroke-linecap: round;
        stroke-linejoin: round;
        stroke-width: 4px;
      }
    </style>
  </defs>
  <g>
    <g>
      <path class="be9b4e56-6c42-445e-beb2-492c3faad30c" d="M122.24,184.4H51.38a3.31,3.31,0,0,1-3.31-3.31V86.34A3.32,3.32,0,0,1,51.38,83h7.06v92.17a1.5,1.5,0,0,0,1.5,1.5h50.27a13.14,13.14,0,0,1,9.37,3.89A12.88,12.88,0,0,1,122.24,184.4Z"/>
      <path class="be9b4e56-6c42-445e-beb2-492c3faad30c" d="M201.93,86.34v94.75a3.31,3.31,0,0,1-3.31,3.31H127.67a12.9,12.9,0,0,1,2.67-3.83,13.15,13.15,0,0,1,9.36-3.88H190a1.5,1.5,0,0,0,1.5-1.5V83h7.14A3.32,3.32,0,0,1,201.93,86.34Z"/>
      <path class="ae6c4bf0-76f5-4274-9110-99319ce7f76c" d="M124,78a16,16,0,0,1,.94,1.73A13.18,13.18,0,0,1,125.9,78Z"/>
    </g>
    <g class="bb44fc0e-ffdc-4dda-a7da-fb80618a13f9">
      <path class="ae6c4bf0-76f5-4274-9110-99319ce7f76c" d="M124.62,189.4a1.55,1.55,0,0,0,.34,0,1.7,1.7,0,0,0,.35,0Z"/>
      <path class="ae6c4bf0-76f5-4274-9110-99319ce7f76c" d="M198.62,78h-7.14V71.83a1.5,1.5,0,0,0-1.5-1.5H139.7a16.1,16.1,0,0,0-11.48,4.76A15.73,15.73,0,0,0,125.9,78a13.18,13.18,0,0,0-.94,1.73,16.28,16.28,0,0,0-14.75-9.42H59.94a1.5,1.5,0,0,0-1.5,1.5V78H51.38a8.32,8.32,0,0,0-8.31,8.32v94.75a8.32,8.32,0,0,0,8.31,8.31H198.62a8.32,8.32,0,0,0,8.31-8.31V86.34A8.32,8.32,0,0,0,198.62,78ZM51.38,184.4a3.31,3.31,0,0,1-3.31-3.31V86.34A3.32,3.32,0,0,1,51.38,83h7.06v92.17a1.5,1.5,0,0,0,1.5,1.5h50.27a13.14,13.14,0,0,1,9.37,3.89,12.88,12.88,0,0,1,2.66,3.82Zm150.55-3.31a3.31,3.31,0,0,1-3.31,3.31H127.67a12.9,12.9,0,0,1,2.67-3.83,13.15,13.15,0,0,1,9.36-3.88H190a1.5,1.5,0,0,0,1.5-1.5V83h7.14a3.32,3.32,0,0,1,3.31,3.32Z"/>
    </g>
    <line class="a1557273-a3c8-41ae-a714-04fd0e50516c" x1="139.42" y1="105.4" x2="173.83" y2="105.4"/>
    <line class="a1557273-a3c8-41ae-a714-04fd0e50516c" x1="139.42" y1="128.69" x2="173.83" y2="128.69"/>
    <line class="a1557273-a3c8-41ae-a714-04fd0e50516c" x1="139.42" y1="151.98" x2="173.83" y2="151.98"/>
    <line class="a1557273-a3c8-41ae-a714-04fd0e50516c" x1="76.1" y1="105.4" x2="110.51" y2="105.4"/>
    <line class="a1557273-a3c8-41ae-a714-04fd0e50516c" x1="76.1" y1="128.69" x2="110.51" y2="128.69"/>
    <line class="a1557273-a3c8-41ae-a714-04fd0e50516c" x1="76.1" y1="151.98" x2="110.51" y2="151.98"/>
  </g>
</svg>
